# xmcd
#
# Track frame offsets: 
#        150
#        22422
#        46533
#        69827
#        87492
#        108473
#        126462
#        146901
#        166051
#
# Disc length: 2405 seconds
#
# Revision: 0
# Processed by: cddbd v1.5.2PL0 Copyright (c) Steve Scherf et al.
# Submitted via: ExactAudioCopy v1.0b1
#
DISCID=7c096309
DTITLE=Stanisław Soyka - Stanisław Soyka (Rca)
DYEAR=1986
DGENRE=Vocal
TTITLE0=Fade Away
TTITLE1=Slow It Down
TTITLE2=Never Fear
TTITLE3=It's Raining
TTITLE4=Love Is Crazy
TTITLE5=Bat An Eye
TTITLE6=Heaven
TTITLE7=Fellow Man
TTITLE8=Father's Lullaby (Jacob's Song)
EXTD=
EXTT0=
EXTT1=
EXTT2=
EXTT3=
EXTT4=
EXTT5=
EXTT6=
EXTT7=
EXTT8=
PLAYORDER=
